<svg id="fe93853b-bf98-4af8-957f-a70d78776b9d" data-name="Layer 1" xmlns="http://www.w3.org/2000/svg" xmlns:xlink="http://www.w3.org/1999/xlink" viewBox="0 0 429.5 492.76"><defs><clipPath id="ea564832-23b7-49f9-8c3a-2d3c729306e4" transform="translate(-35.19 -3)"><path d="M35.19,249.36c0,135.84,110.51,246.4,246.35,246.4a244.66,244.66,0,0,0,116-29.08A247.89,247.89,0,0,0,464.69,414l-29.38-26.42a207.26,207.26,0,0,1-56.39,44.2,205.08,205.08,0,0,1-97.38,24.44c-114.07,0-206.85-92.84-206.85-206.9S167.47,42.5,281.54,42.5a205.31,205.31,0,0,1,97.63,24.55l18.66-34.87A245.15,245.15,0,0,0,281.54,3C145.7,3,35.19,113.51,35.19,249.36" fill="none"/></clipPath><linearGradient id="ed902a3f-f1a0-46b6-b7b1-90dbcf07e2ad" x1="-649.7" y1="557" x2="-648.84" y2="557" gradientTransform="translate(324023.23 -277544.33) scale(498.72)" gradientUnits="userSpaceOnUse"><stop offset="0" stop-color="#00601b"/><stop offset="1" stop-color="#6c8408"/></linearGradient><clipPath id="ae5b5a87-cf0b-4aaf-bad1-a9d54eb840fd" transform="translate(-35.19 -3)"><path d="M95.63,249.36c0,102.51,83.4,185.91,185.91,185.91A184.4,184.4,0,0,0,369,413.35a188.37,188.37,0,0,0,50.72-39.7,186,186,0,0,0,29.38-43.76l-35.61-17.08a147.58,147.58,0,0,1-63.1,65.72,145.3,145.3,0,0,1-68.89,17.24c-80.73,0-146.41-65.68-146.41-146.41s65.68-146.42,146.41-146.42a145.15,145.15,0,0,1,69.13,17.39,146.88,146.88,0,0,1,39.8,31.3l29.43-26.37a187.43,187.43,0,0,0-50.56-39.8,185.52,185.52,0,0,0-87.8-22C179,63.44,95.63,146.84,95.63,249.36" fill="none"/></clipPath><linearGradient id="b7e2f948-875d-419e-9718-fd0a9db72466" x1="-649.45" y1="557" x2="-648.59" y2="557" gradientTransform="translate(266647.73 -228393.44) scale(410.48)" gradientUnits="userSpaceOnUse"><stop offset="0" stop-color="#6faf00"/><stop offset="1" stop-color="#c8e2bc"/></linearGradient><clipPath id="b391d522-4af9-48f5-9bcb-b86db106f50a" transform="translate(-35.19 -3)"><path d="M156.81,249.36a124.71,124.71,0,0,0,183.4,110.06L317.69,326.5a85.1,85.1,0,1,1,40.69-114l29.59-28a124.66,124.66,0,0,0-231.16,64.86" fill="none"/></clipPath><linearGradient id="a1ad69e2-80c5-47e2-a11a-3ce6c888264e" x1="-648.66" y1="557" x2="-647.8" y2="557" gradientTransform="translate(174231.69 -149260.87) scale(268.41)" gradientUnits="userSpaceOnUse"><stop offset="0" stop-color="#d9e8c1"/><stop offset="1" stop-color="#ccce7c"/></linearGradient><clipPath id="b66b5dbc-ad93-4286-8d85-e9685e4487e0" transform="translate(-35.19 -3)"><path d="M222.81,249.38A58.35,58.35,0,1,0,281.16,191a58.34,58.34,0,0,0-58.35,58.35" fill="none"/></clipPath><linearGradient id="a4805f7b-163e-4c1e-8f59-832d84ba03bb" x1="-646.45" y1="557.01" x2="-645.59" y2="557.01" gradientTransform="translate(87781.98 -75228.31) scale(135.5)" xlink:href="#a1ad69e2-80c5-47e2-a11a-3ce6c888264e"/></defs><title>logo svg</title><g clip-path="url(#ea564832-23b7-49f9-8c3a-2d3c729306e4)"><rect width="429.5" height="492.76" fill="url(#ed902a3f-f1a0-46b6-b7b1-90dbcf07e2ad)"/></g><g clip-path="url(#ae5b5a87-cf0b-4aaf-bad1-a9d54eb840fd)"><rect x="60.44" y="60.44" width="353.51" height="371.83" fill="url(#b7e2f948-875d-419e-9718-fd0a9db72466)"/></g><g clip-path="url(#b391d522-4af9-48f5-9bcb-b86db106f50a)"><rect x="121.62" y="121.62" width="231.16" height="249.47" fill="url(#a1ad69e2-80c5-47e2-a11a-3ce6c888264e)"/></g><g clip-path="url(#b66b5dbc-ad93-4286-8d85-e9685e4487e0)"><rect x="187.63" y="188.03" width="116.69" height="116.69" fill="url(#a4805f7b-163e-4c1e-8f59-832d84ba03bb)"/></g></svg>